<?xml version="1.0" encoding="iso-8859-1"?>
<!-- Generator: Adobe Illustrator 18.1.1, SVG Export Plug-In . SVG Version: 6.00 Build 0)  -->
<svg version="1.1" id="Layer_1" xmlns="http://www.w3.org/2000/svg" xmlns:xlink="http://www.w3.org/1999/xlink" x="0px" y="0px"
	 viewBox="0 0 45.95 45.63" style="enable-background:new 0 0 45.95 45.63;" xml:space="preserve">
<g>
	<g>
		<path style="fill:none;stroke:#5F2F7D;stroke-width:1.5;stroke-linecap:round;stroke-linejoin:round;stroke-miterlimit:10;" d="
			M26.096,44.88c0,0-0.013-15.189,0.073-15.897c0.308-2.543,1.72-4.13,3.557-5.274c1.539-0.958,3.229-1.25,4.958-1.288
			c2.155-0.047,4.3-0.025,6.329,1.008c1.753,0.893,3.128,2.251,3.817,4.369c0.419,1.287,0.369,17.081,0.369,17.081"/>
		<path style="fill:none;stroke:#5F2F7D;stroke-width:1.5;stroke-linecap:round;stroke-linejoin:round;stroke-miterlimit:10;" d="
			M29.904,7.075c0.031-3.258,2.239-5.928,5.226-6.289c2.798-0.339,5.599,1.761,6.109,4.879c0.557,3.409-0.418,6.437-2.807,8.758
			c-1.751,1.701-4.182,1.488-5.883-0.294c-1.465-1.534-2.159-3.482-2.496-5.607C29.978,8.045,29.952,7.558,29.904,7.075z"/>
	</g>
	<g>
		<path style="fill:none;stroke:#5F2F7D;stroke-width:1.5;stroke-linecap:round;stroke-linejoin:round;stroke-miterlimit:10;" d="
			M0.751,44.88c0,0-0.013-15.189,0.073-15.897c0.308-2.543,1.72-4.13,3.557-5.274c1.539-0.958,3.229-1.25,4.958-1.288
			c2.155-0.047,4.3-0.025,6.329,1.008c1.753,0.893,3.128,2.251,3.817,4.369c0.419,1.287,0.369,17.081,0.369,17.081"/>
		<path style="fill:none;stroke:#5F2F7D;stroke-width:1.5;stroke-linecap:round;stroke-linejoin:round;stroke-miterlimit:10;" d="
			M4.558,7.075c0.031-3.258,2.239-5.928,5.226-6.289c2.798-0.339,5.599,1.761,6.109,4.879c0.557,3.409-0.418,6.437-2.807,8.758
			c-1.751,1.701-4.182,1.488-5.883-0.294c-1.465-1.534-2.159-3.482-2.496-5.607C4.632,8.045,4.607,7.558,4.558,7.075z"/>
	</g>
</g>
</svg>
