<?xml version="1.0" encoding="iso-8859-1"?>
<!-- Generator: Adobe Illustrator 18.1.1, SVG Export Plug-In . SVG Version: 6.00 Build 0)  -->
<svg version="1.1" id="Layer_1" xmlns="http://www.w3.org/2000/svg" xmlns:xlink="http://www.w3.org/1999/xlink" x="0px" y="0px"
	 viewBox="0 0 44.666 42.651" style="enable-background:new 0 0 44.666 42.651;" xml:space="preserve">
<g>
	<path style="fill:#FFFFFF;stroke:#5F2F7D;stroke-width:1.5;stroke-linecap:round;stroke-linejoin:round;stroke-miterlimit:10;" d="
		M35.65,41.864c-4.464-3.106-8.869-6.171-13.32-9.268c-4.415,3.071-8.842,6.151-13.376,9.305c0.352-1.168,0.667-2.22,0.985-3.271
		c1.192-3.938,2.382-7.876,3.586-11.81c0.113-0.368,0.081-0.578-0.258-0.834c-4.01-3.015-8.003-6.052-11.999-9.084
		c-0.146-0.11-0.285-0.229-0.517-0.415c0.342-0.027,0.584-0.059,0.826-0.064c4.327-0.079,8.655-0.152,12.982-0.232
		c0.656-0.012,1.312-0.073,1.967-0.063c0.345,0.005,0.494-0.1,0.608-0.43c1.621-4.698,3.257-9.391,4.89-14.085
		c0.085-0.245,0.177-0.488,0.313-0.864c0.468,1.345,0.889,2.558,1.311,3.771c1.296,3.726,2.598,7.451,3.881,11.181
		c0.115,0.334,0.272,0.418,0.61,0.424c5.051,0.089,10.101,0.194,15.151,0.297c0.165,0.003,0.329,0.035,0.627,0.068
		c-0.666,0.509-1.24,0.95-1.817,1.388c-3.581,2.717-7.158,5.438-10.75,8.141c-0.305,0.229-0.329,0.417-0.227,0.754
		c1.513,4.963,3.012,9.931,4.514,14.898C35.645,41.702,35.642,41.735,35.65,41.864z"/>
</g>
</svg>
